<svg width="261" height="261" viewBox="0 0 261 261" fill="none" xmlns="http://www.w3.org/2000/svg">
<rect x="0.626709" y="0.145996" width="260" height="260" rx="130" fill="#2B292E"/>
<path fill-rule="evenodd" clip-rule="evenodd" d="M110.748 138.372C108.906 137.527 107.135 136.532 105.44 135.445C100.99 132.589 98.7261 129.207 98.7683 125.292C98.7823 123.736 98.9933 122.535 99.9002 120.702C100.821 118.861 102.41 117.433 103.219 116.886C105.342 115.444 107.296 115.316 109.223 115.373C111.451 115.43 113.975 116.971 115.529 117.746C116.935 118.449 122.89 121.355 124.879 122.151C126.862 122.94 129.245 123.515 131.868 123.515C135.32 123.515 137.752 122.542 139.011 121.433C140.262 120.318 140.719 119.032 140.719 116.915C140.719 115.33 139.657 113.632 138.033 112.516C136.416 111.408 134.209 110.122 131.734 108.992C129.027 107.756 128.451 107.493 126.517 106.747C124.479 105.958 122.672 105.269 120.788 104.523C115.873 102.413 109.026 99.6488 104.941 96.1602L104.955 96.1744C100.87 92.7355 98.7683 87.1721 98.7683 80.6139C98.7683 72.9971 101.7 67.3982 107.556 62.3251C113.42 57.2448 121.209 54.7083 130.94 54.7083C132.514 54.7083 134.16 54.8148 135.889 55.028C137.611 55.234 139.313 55.5538 140.986 55.9801C146.428 57.1382 151.37 59.149 155.82 62.0053C160.264 64.8616 162.527 68.2437 162.485 72.1587C162.471 73.7147 162.267 74.9155 161.353 76.7416C160.439 78.5889 158.843 80.01 158.042 80.5571C155.912 81.9994 153.964 82.1273 152.031 82.0776C149.809 82.0137 147.278 80.4789 145.732 79.7045C144.319 79.001 138.371 76.0879 136.381 75.2992C134.392 74.5034 132.008 73.935 129.393 73.935C125.941 73.935 123.508 74.9084 122.25 76.0168C120.991 77.1253 120.535 78.4184 120.535 80.5287C120.535 82.1202 121.596 83.8184 123.22 84.9268C124.844 86.0352 127.045 87.3284 129.526 88.4581C132.233 89.6944 132.803 89.9573 134.736 90.7034C136.782 91.4849 138.659 92.1955 140.543 92.9344H140.536C145.45 95.2365 151.398 97.9507 155.476 101.383C159.56 104.821 162.485 110.278 162.485 116.836C162.485 124.446 159.56 130.052 153.697 135.125C152.495 136.17 149.851 138.159 149.851 138.159C151.679 139.118 153.388 140.177 154.963 141.57C159.982 146.025 162.485 152.27 162.485 160.299V196.316C162.485 199.548 161.592 202.099 159.8 203.975C158.007 205.851 155.68 206.796 152.811 206.796C150.034 206.796 147.721 205.851 145.886 203.975C144.051 202.099 143.13 199.591 143.13 196.443V163.44C143.13 159.162 141.9 155.958 139.432 153.819C136.972 151.68 133.991 150.615 130.497 150.615C127.003 150.615 124.289 151.68 121.821 153.819C119.36 155.958 118.13 159.162 118.13 163.44V196.443C118.13 199.591 117.209 202.099 115.374 203.975C113.532 205.851 111.226 206.796 108.449 206.796C105.581 206.796 103.247 205.851 101.454 203.975C99.6682 202.099 98.7683 199.548 98.7683 196.316V160.299C98.7683 152.27 101.278 146.025 106.298 141.57C107.725 140.305 110.748 138.372 110.748 138.372Z" fill="white"/>
</svg>
