<svg width="160" height="24" viewBox="0 0 160 24" fill="none" xmlns="http://www.w3.org/2000/svg">
<g clip-path="url(#clip0_201_22)">
<path d="M1.38966 16.8188C1.0128 16.6068 0.753713 16.1829 0.753713 15.7354C0.753713 15.0523 1.319 14.487 2.00205 14.487C2.23759 14.487 2.44957 14.5577 2.638 14.6519C3.55658 15.2172 4.68715 15.6176 5.72351 15.6176C7.01895 15.6176 7.63134 15.1701 7.63134 14.4635C7.63134 13.6626 6.6421 13.38 5.34665 13.1209C3.39171 12.7441 0.871481 12.273 0.871481 9.56433C0.871481 7.65649 2.54378 5.98419 5.53508 5.98419C6.9954 5.98419 8.24374 6.36105 9.28009 6.99699C9.63339 7.18542 9.86893 7.56228 9.86893 7.98624C9.86893 8.62219 9.35075 9.14036 8.71481 9.14036C8.52638 9.14036 8.29084 9.09326 8.14952 8.99904C7.41936 8.55153 6.52433 8.26888 5.55863 8.26888C4.47517 8.26888 3.76857 8.66929 3.76857 9.32879C3.76857 10.0354 4.6636 10.2945 5.93549 10.5536C7.89043 10.9304 10.5049 11.4486 10.5049 14.275C10.5049 16.3477 8.73836 17.9258 5.58219 17.9258C4.05121 17.9258 2.59089 17.549 1.38966 16.8188ZM20.9288 6.10196C21.7532 6.10196 22.4362 6.78501 22.4362 7.60938V16.3006C22.4362 17.1486 21.7767 17.8316 20.9523 17.8316C20.1044 17.8316 19.4214 17.1486 19.4214 16.3006V16.23C18.6441 17.0779 17.3015 17.9258 15.4408 17.9258C12.9441 17.9258 11.7665 16.5597 11.7665 14.3457V7.60938C11.7665 6.78501 12.426 6.10196 13.2739 6.10196C14.0747 6.10196 14.7578 6.78501 14.7578 7.60938V13.168C14.7578 14.7461 15.5821 15.2643 16.854 15.2643C18.0081 15.2643 18.9267 14.6283 19.4449 13.9688V7.60938C19.4449 6.78501 20.1044 6.10196 20.9288 6.10196ZM30.965 5.98419C33.8856 5.98419 36.0054 8.15112 36.0054 11.9432C36.0054 15.7354 33.8856 17.9258 30.965 17.9258C29.6224 17.9258 28.3976 17.3605 27.4555 16.1829V20.6345C27.4555 21.4589 26.7725 22.1419 25.9716 22.1419C25.1237 22.1419 24.4642 21.4589 24.4642 20.6345V7.60938C24.4642 6.76146 25.1237 6.05485 25.9716 6.05485C26.796 6.05485 27.4791 6.76146 27.4791 7.60938V7.68005C28.3741 6.57303 29.5989 5.98419 30.965 5.98419ZM30.0228 15.2643C31.7422 15.2643 32.8964 13.9217 32.8964 11.9432C32.8964 9.98829 31.7422 8.64574 30.0228 8.64574C29.0571 8.64574 27.9501 9.21102 27.4555 9.94118V13.9688C27.9501 14.6754 29.0571 15.2643 30.0228 15.2643ZM36.5698 11.9432C36.5698 8.64574 38.9958 5.98419 42.4582 5.98419C45.8499 5.98419 48.1581 8.52797 48.1581 11.4957C48.1581 12.485 47.5222 12.9089 46.3916 12.9089H39.7024C39.8908 14.3457 41.045 15.5469 42.9764 15.5469C43.7301 15.5469 44.578 15.3114 45.2846 14.911C45.4495 14.8168 45.6379 14.7697 45.8499 14.7697C46.4858 14.7697 47.0276 15.3114 47.0276 15.9473C47.0276 16.3949 46.7685 16.7717 46.3916 16.9837C45.2846 17.6196 43.9656 17.9258 42.6466 17.9258C39.1842 17.9258 36.5698 15.594 36.5698 11.9432ZM42.4582 8.3631C40.5975 8.3631 39.7966 9.75276 39.6553 10.8833H45.2611C45.1904 9.79986 44.4367 8.3631 42.4582 8.3631ZM54.9824 6.05485C55.7832 6.05485 56.2307 6.66724 56.2307 7.3974C56.2307 8.12756 55.7597 8.73995 54.8175 8.88128C54.0403 8.97549 52.8626 9.39945 52.368 10.1296V16.3006C52.368 17.125 51.6849 17.8081 50.8841 17.8081C50.0362 17.8081 49.3767 17.125 49.3767 16.3006V7.63294C49.3767 6.78501 50.0362 6.10196 50.8605 6.10196C51.7085 6.10196 52.3915 6.76146 52.3915 7.60938L52.368 7.82137C52.8626 7.13831 53.5456 6.50237 54.2287 6.24328C54.5113 6.12551 54.7233 6.05485 54.9824 6.05485ZM63.0224 5.98419C65.4013 5.98419 66.6497 7.18542 66.6497 9.65854V16.8659C66.6497 17.337 66.2493 17.7374 65.7546 17.7374C65.2836 17.7374 64.8832 17.337 64.8832 16.8659V10.2003C64.8832 8.19822 63.8704 7.56228 62.3394 7.56228C60.9497 7.56228 59.6307 8.4102 58.9712 9.32879V16.8659C58.9712 17.337 58.5708 17.7374 58.0998 17.7374C57.6051 17.7374 57.2047 17.337 57.2047 16.8659V7.0441C57.2047 6.57303 57.6051 6.17262 58.0762 6.17262C58.5708 6.17262 58.9712 6.57303 58.9712 7.0441V7.93913C59.7485 6.99699 61.2795 5.98419 63.0224 5.98419ZM74.2052 17.9258C70.7428 17.9258 68.5759 15.2407 68.5759 11.9432C68.5759 8.64574 70.7428 5.98419 74.2052 5.98419C77.6676 5.98419 79.8345 8.64574 79.8345 11.9432C79.8345 15.2407 77.6676 17.9258 74.2052 17.9258ZM74.2052 16.3477C76.6312 16.3477 77.9738 14.275 77.9738 11.9432C77.9738 9.63499 76.6312 7.56228 74.2052 7.56228C71.7792 7.56228 70.4131 9.63499 70.4131 11.9432C70.4131 14.275 71.7792 16.3477 74.2052 16.3477ZM85.9411 16.1358C86.3886 16.1358 86.6948 16.442 86.6948 16.8895C86.6948 17.2192 86.53 17.4312 86.2473 17.549C85.8469 17.7845 85.3523 17.9258 84.6457 17.9258C82.9734 17.9258 82.1255 16.9601 82.1255 15.2643V7.82137H80.9242C80.5003 7.82137 80.147 7.46806 80.147 7.0441C80.147 6.62014 80.5003 6.26683 80.9242 6.26683H82.1255V3.93503C82.1255 3.46396 82.5259 3.06355 83.0205 3.06355C83.4916 3.06355 83.892 3.46396 83.892 3.93503V6.26683H85.5172C85.9411 6.26683 86.318 6.62014 86.318 7.0441C86.318 7.46806 85.9411 7.82137 85.5172 7.82137H83.892V14.8874C83.892 15.7354 84.2688 16.3477 85.0461 16.3477C85.5407 16.3477 85.7056 16.1358 85.9411 16.1358ZM87.094 11.9432C87.094 8.64574 89.4493 5.98419 92.6997 5.98419C96.1385 5.98419 98.1641 8.66929 98.1641 11.637C98.1641 12.2023 97.7873 12.5321 97.1278 12.5321H88.9547C89.096 14.6754 90.6034 16.4655 93.053 16.4655C94.16 16.4655 95.2199 16.0887 96.115 15.382C96.2327 15.3114 96.3741 15.2878 96.5154 15.2878C96.9158 15.2878 97.2455 15.594 97.2455 15.9944C97.2455 16.23 97.1278 16.442 96.9393 16.5833C95.8088 17.4548 94.4662 17.9258 92.8881 17.9258C89.52 17.9258 87.094 15.4998 87.094 11.9432ZM92.6761 7.44451C90.2501 7.44451 89.0489 9.49367 88.9547 11.2366H96.4212C96.3976 9.54077 95.267 7.44451 92.6761 7.44451ZM99.6121 16.5833C99.4001 16.442 99.2824 16.2064 99.2824 15.9473C99.2824 15.5234 99.6357 15.1701 100.06 15.1701C100.225 15.1701 100.389 15.2172 100.531 15.3114C101.355 15.9944 102.486 16.4891 103.758 16.4891C105.5 16.4891 106.443 15.7118 106.443 14.6048C106.443 13.3564 105.053 12.956 103.522 12.5792C101.591 12.1317 99.4001 11.6135 99.4001 9.25813C99.4001 7.49162 100.931 5.98419 103.64 5.98419C105.265 5.98419 106.49 6.50237 107.408 7.23253C107.573 7.37385 107.715 7.58583 107.715 7.82137C107.715 8.22178 107.361 8.57508 106.961 8.57508C106.819 8.57508 106.655 8.50442 106.537 8.4102C105.83 7.79781 104.817 7.42096 103.64 7.42096C102.085 7.42096 101.12 8.12756 101.12 9.14036C101.12 10.2474 102.415 10.6007 103.899 10.954C105.877 11.4015 108.162 11.9668 108.162 14.487C108.162 16.3949 106.631 17.9258 103.687 17.9258C102.109 17.9258 100.743 17.5019 99.6121 16.5833Z" fill="black"/>
<path fill-rule="evenodd" clip-rule="evenodd" d="M121.43 1.35379C118.283 1.35379 115.732 3.90487 115.732 7.05178V15.8358C115.732 18.9827 118.283 21.5338 121.43 21.5338H146.622C149.768 21.5338 152.32 18.9827 152.32 15.8358V7.05178C152.32 3.90487 149.768 1.35379 146.622 1.35379H121.43ZM121.506 15.2548C121.506 15.8038 121.808 16.1057 122.357 16.1057H124.91C127.765 16.1057 129.7 14.2255 129.7 11.5355C129.7 8.84556 127.765 6.95161 124.91 6.95161H122.357C121.808 6.95161 121.506 7.25354 121.506 7.80251V15.2548ZM124.91 14.6921H123.112V8.36521H124.91C126.955 8.36521 128.053 9.76509 128.053 11.5355C128.053 13.2648 126.9 14.6921 124.91 14.6921ZM130.701 15.2548C130.701 15.8038 131.003 16.1057 131.552 16.1057H136.342C136.726 16.1057 137.055 15.7901 137.055 15.3921C137.055 15.0078 136.726 14.6921 136.342 14.6921H132.307V12.1531H136.246C136.63 12.1531 136.959 11.8375 136.959 11.4395C136.959 11.0552 136.63 10.7395 136.246 10.7395H132.307V8.36521H136.342C136.726 8.36521 137.055 8.04955 137.055 7.66527C137.055 7.26727 136.726 6.95161 136.342 6.95161H131.552C131.003 6.95161 130.701 7.25354 130.701 7.80251V15.2548ZM140.379 15.2823C140.585 15.8038 141.106 16.1881 141.71 16.1881C142.314 16.1881 142.835 15.8038 143.041 15.2823L145.882 8.0221C145.923 7.92603 145.951 7.82996 145.951 7.72017C145.951 7.25354 145.566 6.86926 145.1 6.86926C144.743 6.86926 144.427 7.08885 144.304 7.41823L141.71 14.3627L139.116 7.41823C138.993 7.08885 138.677 6.86926 138.32 6.86926C137.853 6.86926 137.469 7.25354 137.469 7.72017C137.469 7.82996 137.497 7.92603 137.538 8.0221L140.379 15.2823Z" fill="black"/>
</g>
<defs>
<clipPath id="clip0_201_22">
<rect width="160" height="24" fill="white"/>
</clipPath>
</defs>
</svg>
